<?xml version="1.0" encoding="UTF-8"?> <svg xmlns="http://www.w3.org/2000/svg" width="508" height="129" viewBox="0 0 508 129" fill="none"> <path d="M48.6884 26.1729C49.5463 26.3874 52.549 26.4946 53.2997 26.2802C59.198 25.2077 63.9166 21.2398 65.6325 15.1271C66.4904 12.0171 66.8121 8.47815 65.418 5.58264C63.5949 1.93644 59.627 0.113342 55.7663 0.00610085C48.5811 -0.208381 42.6829 5.26091 40.7525 11.9099C38.5005 19.3095 41.9322 24.6715 48.6884 26.1729Z" fill="#FF6930"></path> <path d="M161.291 74.0074C161.291 69.396 154.534 69.6105 152.068 71.6481C143.596 78.1898 134.802 84.1953 126.115 90.4153L126.223 90.2008C127.939 86.7691 143.596 54.704 149.923 41.6206L151.639 38.0817C151.853 37.7599 151.961 37.331 151.961 37.0092C152.711 34.221 150.888 31.7544 147.564 31.7544C147.564 31.7544 147.242 31.7544 146.92 31.7544C144.454 31.7544 139.199 31.7544 137.59 31.7544C137.483 31.7544 137.483 31.7544 137.483 31.7544C136.196 31.7544 135.016 32.0762 133.944 32.7196C133.622 32.8268 133.408 33.0413 133.086 33.1486C128.582 36.0441 125.15 42.0496 121.719 46.0175C117.751 50.4144 113.783 54.8113 109.6 59.2081C101.879 67.3585 93.7287 75.1871 85.3639 82.5867C82.5756 85.0532 79.0366 88.1632 76.1411 90.5225C76.7846 89.1284 97.0531 47.7333 101.665 38.0817C103.166 34.8644 101.45 31.7544 97.5893 31.7544C97.2676 31.7544 87.5087 31.7544 87.4014 31.7544C84.9349 31.6472 82.6828 32.9341 81.5032 35.2934L75.4977 47.5189C71.8515 54.4895 67.7763 60.7095 61.0202 66.3933C54.0495 72.2915 45.2557 79.5839 39.6792 83.5518C37.1054 85.3749 33.5664 87.4125 29.1696 90.4153C29.5985 89.4501 35.0678 78.5115 40.8588 66.6078C46.5426 55.2402 52.4409 43.122 54.8002 38.0817C55.0147 37.7599 55.1219 37.331 55.1219 37.0092C55.1219 36.7948 55.2291 36.6875 55.2291 36.473C55.2291 36.3658 55.2291 36.2586 55.2291 36.2586C55.4436 33.8993 53.9422 31.9689 51.154 31.8617C51.0467 31.8617 50.8323 31.8617 50.725 31.8617C50.725 31.8617 50.6178 31.8617 50.5105 31.8617C50.296 31.8617 41.395 31.8617 41.1806 31.8617C40.7516 31.8617 40.5371 31.8617 40.5371 31.8617C38.285 31.7544 36.1402 32.9341 34.9606 34.9717C34.8533 35.1861 34.7461 35.2934 34.6389 35.5079L29.813 45.374L28.7406 47.6261L26.2741 52.6664C26.0596 53.0954 25.8451 53.5244 25.6306 53.9533C25.0944 54.9185 24.451 55.7764 23.8075 56.7416C21.5554 60.0661 18.231 62.9616 15.3355 65.6426C11.7965 68.8598 6.43446 71.6481 3.53895 75.4015C0.965169 78.726 1.17965 83.7663 1.17965 87.7343C1.17965 91.2732 4.61136 91.8094 7.61411 91.166L1.39413 104.035C0.428964 105.644 0 107.681 0 109.719C0.107241 116.368 5.79102 120.443 12.2255 119.478C23.3785 117.869 34.7461 107.574 43.4326 101.139C46.8643 98.6728 49.6526 95.9918 53.0843 93.418C47.615 105.644 44.7195 119.263 57.4812 119.585C69.0632 119.799 81.6104 107.145 89.6535 100.389C96.1952 94.9194 101.879 89.2356 107.992 83.3374L102.63 94.3832C100.056 99.9597 98.0183 105.858 98.2328 110.684C99.4124 130.523 125.043 112.4 132.335 107.038C140.7 101.032 149.387 95.0266 157.108 88.2705C162.256 84.0881 161.291 80.3346 161.291 74.0074Z" fill="#FF6930"></path> <path d="M210.513 22.0058C210.513 20.1827 211.908 18.6813 213.945 18.6813C218.556 18.4668 218.556 25.652 213.945 25.3302C211.908 25.3302 210.513 23.8289 210.513 22.0058ZM210.942 61.7922V31.6575H217.055V61.7922H210.942Z" fill="#313131"></path> <path d="M255.769 44.423V61.7961H249.657V45.6027C249.657 39.2754 246.654 36.0582 240.863 36.0582C234.857 36.0582 231.104 39.3827 231.104 45.8171V61.6888H224.991V31.6613H230.997L231.211 36.2727L230.46 38.5248C232.82 33.3772 237.002 30.8034 243.115 30.8034C251.372 30.6962 255.769 35.6293 255.769 44.423Z" fill="#313131"></path> <path d="M278.504 36.9172H270.246V51.6092C270.246 55.0409 271.64 56.6496 275.394 56.6496H278.611V62.1188H274.214C267.029 62.1188 264.133 58.6871 264.133 52.2527V36.9172H257.485V31.6624H264.133V21.26H270.246V31.6624H278.504V36.9172Z" fill="#313131"></path> <path d="M288.156 48.9173C288.907 54.4938 292.553 57.8183 298.88 57.8183C302.955 57.8183 305.744 56.4242 307.245 53.6359H313.143C311.213 59.2124 305.851 62.6441 298.451 62.6441C293.304 62.6441 289.229 61.1428 286.333 58.14C283.438 55.1373 281.936 51.2766 281.936 46.6652C281.936 42.0539 283.438 38.3004 286.226 35.1904C289.121 32.1877 293.089 30.6863 298.237 30.6863C303.384 30.6863 307.46 32.2949 310.355 35.5121C313.251 38.7294 314.537 43.1263 314.108 48.9173H288.156ZM288.049 45.0566H308.317C307.567 38.7294 304.242 35.5121 298.237 35.5121C292.124 35.4049 288.585 38.9439 288.049 45.0566Z" fill="#313131"></path> <path d="M320.328 61.7854V20.6049H326.44V61.7854H320.328Z" fill="#313131"></path> <path d="M334.162 61.7854V20.6049H340.275V61.7854H334.162Z" fill="#313131"></path> <path d="M347.568 22.0058C347.568 20.1827 348.962 18.6813 351 18.6813C355.611 18.4668 355.611 25.652 351 25.3302C348.962 25.3302 347.568 23.8289 347.568 22.0058ZM347.997 61.7922V31.6575H354.11V61.7922H347.997Z" fill="#313131"></path> <path d="M387.248 61.25C390.679 61.25 392.502 62.9659 392.502 65.7541C392.502 67.6845 391.859 69.2931 390.465 70.3655H385.746L386.068 69.2931C386.711 66.8265 386.175 65.8614 383.816 65.8614H362.046L361.081 61.25L366.121 54.4938C362.475 52.2418 360.759 48.7028 360.759 43.7697C360.759 35.7266 366.014 30.6863 375.558 30.6863C380.599 30.6863 384.352 32.1877 386.819 35.1904L389.285 31.6515H395.184L390.143 39.5873C390.572 40.9814 390.787 42.3756 390.787 43.9842C390.787 52.0273 385.532 57.0676 375.773 57.0676C374.057 57.0676 372.448 56.8531 370.947 56.6386L367.301 61.4645H387.248V61.25ZM375.666 52.1345C381.671 52.1345 384.888 49.1318 384.888 43.877C384.888 38.6221 381.671 35.7266 375.666 35.7266C369.66 35.7266 366.443 38.6221 366.443 43.877C366.443 49.1318 369.767 52.1345 375.666 52.1345ZM387.784 36.3701L387.677 36.2628C387.677 36.3701 387.677 36.3701 387.784 36.3701Z" fill="#313131"></path> <path d="M403.976 48.9173C404.727 54.4938 408.373 57.8183 414.7 57.8183C418.776 57.8183 421.564 56.4242 423.065 53.6359H428.964C427.033 59.2124 421.671 62.6441 414.271 62.6441C409.124 62.6441 405.049 61.1428 402.153 58.14C399.258 55.1373 397.756 51.2766 397.756 46.6652C397.756 42.0539 399.258 38.3004 402.046 35.1904C404.942 32.1877 408.909 30.6863 414.057 30.6863C419.205 30.6863 423.28 32.2949 426.175 35.5121C429.071 38.7294 430.358 43.1263 429.929 48.9173H403.976ZM403.869 45.0566H424.138C423.387 38.7294 420.063 35.5121 414.057 35.5121C407.944 35.4049 404.405 38.9439 403.869 45.0566Z" fill="#313131"></path> <path d="M467.034 44.423V61.7961H460.921V45.6027C460.921 39.2754 457.918 36.0582 452.127 36.0582C446.122 36.0582 442.368 39.3827 442.368 45.8171V61.6888H436.256V31.6613H442.261L442.476 36.2727L441.725 38.5248C444.084 33.3772 448.267 30.8034 454.379 30.8034C462.637 30.6962 467.034 35.6293 467.034 44.423Z" fill="#313131"></path> <path d="M489.77 36.9172H481.513V51.6092C481.513 55.0409 482.907 56.6496 486.66 56.6496H489.877V62.1188H485.48C478.295 62.1188 475.4 58.6871 475.4 52.2527V36.9172H468.751V31.6624H475.4V21.26H481.513V31.6624H489.77V36.9172Z" fill="#313131"></path> <path d="M235.714 89.5693H241.827V119.704H235.929L235.714 115.093L236.465 112.841C234.106 117.988 229.923 120.562 223.811 120.562C215.446 120.562 210.942 115.629 210.942 106.835V89.5693H217.054V105.656C217.054 111.983 220.057 115.2 225.848 115.2C231.854 115.2 235.607 111.875 235.607 105.441V89.5693H235.714Z" fill="#313131"></path> <path d="M280.327 102.436V119.809H274.214V103.723C274.214 97.3954 271.211 94.1782 265.42 94.1782C259.415 94.1782 255.661 97.5026 255.661 103.937V119.809H249.548V89.5668H255.554L255.768 94.1782L255.018 96.4302C257.377 91.2826 261.559 88.7089 267.672 88.7089C275.822 88.7089 280.327 93.642 280.327 102.436Z" fill="#313131"></path> <path d="M287.619 80.0264C287.619 78.2033 289.013 76.7019 291.051 76.7019C295.662 76.4874 295.662 83.6726 291.051 83.3508C289.013 83.3508 287.619 81.8495 287.619 80.0264ZM288.048 119.813V89.5708H294.161V119.706H288.048V119.813Z" fill="#313131"></path> <path d="M312.82 119.811L299.201 89.5693H305.528L315.823 112.841H316.038L326.226 89.5693H332.553L319.04 119.704H312.82V119.811Z" fill="#313131"></path> <path d="M339.418 106.94C340.169 112.516 343.815 115.841 350.142 115.841C354.217 115.841 357.005 114.447 358.507 111.658H364.405C362.475 117.235 357.113 120.667 349.713 120.667C344.566 120.667 340.49 119.165 337.595 116.163C334.699 113.16 333.198 109.299 333.198 104.688C333.198 100.076 334.699 96.323 337.488 93.213C340.383 90.2102 344.351 88.7089 349.499 88.7089C354.646 88.7089 358.721 90.3175 361.617 93.5347C364.512 96.7519 365.799 101.149 365.37 106.94H339.418ZM339.311 102.972H359.579C358.829 96.6447 355.504 93.4275 349.499 93.4275C343.386 93.4275 339.847 96.9664 339.311 102.972Z" fill="#313131"></path> <path d="M399.473 100.184V102.007H393.682V101.471C393.682 96.7519 391.215 94.0709 386.389 94.0709C381.134 94.0709 377.81 97.0737 377.81 103.401V119.809H371.697V89.5668H377.703L377.917 94.1782L377.488 95.465C379.74 90.9609 383.386 88.7089 388.32 88.7089C395.505 88.7089 399.473 93.213 399.473 100.184Z" fill="#313131"></path> <path d="M402.689 111.224H408.265C408.801 114.548 411.375 115.943 416.952 115.943C422.528 115.943 425.316 114.763 425.316 111.331C425.316 108.757 423.708 107.685 419.74 107.256L412.662 106.613C405.906 105.969 402.903 103.181 402.903 98.0333C402.903 91.9205 407.622 88.8106 416.952 88.8106C425.638 88.8106 430.142 92.0278 430.464 98.355H424.887C424.351 95.0305 422.314 93.5292 416.737 93.5292C411.482 93.5292 408.801 95.0305 408.801 98.0333C408.801 100.5 410.41 101.787 414.592 102.216L421.777 102.859C428.534 103.503 431.322 105.862 431.322 111.009C431.429 117.658 426.496 120.768 416.737 120.768C407.729 120.661 403.118 117.551 402.689 111.224Z" fill="#313131"></path> <path d="M437.222 80.0264C437.222 78.2033 438.616 76.7019 440.653 76.7019C445.265 76.4874 445.265 83.6726 440.653 83.3508C438.616 83.3508 437.222 81.8495 437.222 80.0264ZM437.651 119.813V89.5708H443.763V119.706H437.651V119.813Z" fill="#313131"></path> <path d="M470.786 94.9297H462.529V109.622C462.529 113.053 463.923 114.662 467.676 114.662H470.894V120.131H466.497C459.312 120.131 456.416 116.7 456.416 110.265V94.9297H449.767V89.5676H456.416V79.1652H462.529V89.5676H470.786V94.9297Z" fill="#313131"></path> <path d="M484.193 128.176L488.161 119.704L486.659 116.594L474.326 89.5693H480.761L491.056 112.733H491.271L501.566 89.5693H508L490.52 128.176H484.193Z" fill="#313131"></path> </svg> 